<?xml version="1.0" encoding="UTF-8"?>
<!DOCTYPE svg PUBLIC "-//W3C//DTD SVG 1.1//EN" "http://www.w3.org/Graphics/SVG/1.1/DTD/svg11.dtd">
<!-- Creator: CorelDRAW X7 -->
<svg xmlns="http://www.w3.org/2000/svg" xml:space="preserve" width="1024px" height="1024px" version="1.1" style="shape-rendering:geometricPrecision; text-rendering:geometricPrecision; image-rendering:optimizeQuality; fill-rule:evenodd; clip-rule:evenodd"
viewBox="0 0 102400 102400"
 xmlns:xlink="http://www.w3.org/1999/xlink">
 <defs>
  <style type="text/css">
   <![CDATA[
    .fil0 {fill:#FEFEFE}
    .fil1 {fill:#ED3237;fill-rule:nonzero}
   ]]>
  </style>
 </defs>
 <g id="Layer_x0020_1">
  <metadata id="CorelCorpID_0Corel-Layer"/>
  <g id="_252713472">
   <rect class="fil0" width="102400" height="102400" rx="22684" ry="22684"/>
   <path class="fil1" d="M13679 65350l0 11966 75042 0 0 -11966 3795 0 0 11966 0 3794 -3795 0 -75042 0 -3795 0 0 -3794 0 -11966 3795 0zm73517 -1437l0 -3681 -2187 0c-2185,0 -3883,-1611 -3883,-3797 0,-2214 1698,-4026 3797,-4026 2099,0 3797,1869 3797,4141l0 7363 3796 0 0 -7363c0,-4314 -3135,-7823 -7593,-7823 -4487,0 -7622,3509 -7622,7708 0,4141 3107,7478 7248,7478l2647 0zm-24395 3c2119,145 3833,-261 5080,-1452 1714,-1596 1917,-4064 1917,-6038 0,-2148 406,-2700 754,-3077 552,-552 1336,-755 2410,-639l0 -3716c-2148,-174 -3803,319 -5052,1539 -1741,1654 -1945,3919 -1945,5893 0,2177 -377,2874 -754,3222 -552,552 -1423,639 -2410,552l0 3716zm-4391 -14951l-3832 0 0 14951 3832 0 0 -14951zm-21555 6299l0 8652 3832 0 0 -8738c0,-1684 1220,-2846 2903,-2846 2526,0 2816,2004 2816,2846l0 754 3832 0 0 -668c0,-3919 -2467,-6676 -6648,-6676 -4064,0 -6735,2873 -6735,6676zm-4316 92c0,-3876 -2440,-6604 -6575,-6604 -1924,0 -3590,805 -4709,2097 -1063,-1292 -2699,-2097 -4709,-2097 -4049,0 -6662,2843 -6662,6604l0 8557 3790 0 0 -8643c0,-1665 1178,-2814 2872,-2814 2498,0 2756,1981 2756,2814l0 8643 3790 0 0 -8643c0,-1665 1206,-2814 2872,-2814 2497,0 2785,1981 2785,2814l0 8643 3790 0 0 -8557zm38993 -23935l1945 0 4302 0 10942 0 3795 0 0 3794 0 11966 -3795 0 0 -11966 -4841 0 -6101 0 -3873 0 -4197 0 -40 -64 -164 -256 -41 -63 -42 -64 -42 -63 -169 -252 -43 -63 -43 -62 -44 -62 -43 -62 -130 -184 -2 -2 -44 -61 -45 -61 -45 -62 -45 -60 -136 -182 -46 -61 -46 -59 -46 -60 -46 -61 -94 -119 -47 -59 -48 -59 -47 -59 -48 -59 -47 -58 -96 -117 -49 -58 -49 -58 -49 -58 -49 -58 -49 -57 -99 -114 -50 -57 -50 -57 -50 -56 -51 -57 -152 -168 -51 -55 -51 -56 -52 -55 -52 -56 -51 -54 -105 -110 -52 -54 -106 -108 -53 -54c-3953,-4000 -9442,-6480 -15510,-6480 -6068,0 -11557,2480 -15510,6480l-53 54 -106 108 -52 54 -105 110 -51 54 -52 56 -52 55 -51 56 -51 55 -152 168 -51 57 -50 56 -50 57 -50 57 -99 114 -49 58 -49 58 -49 57 -49 58 -192 233 -48 59 -47 59 -48 59 -141 179 -46 60 -46 60 -46 60 -46 60 -136 182 -45 61 -45 61 -45 61 -44 61 -2 2 -130 184 -43 62 -44 62 -43 62 -43 63 -169 252 -42 63 -42 64 -41 63 -164 256 -40 64 -4197 0 -3229 0 -2651 0 -8935 0 0 11966 -3795 0 0 -11966 0 -3794 3795 0 11586 0 5246 0 357 0c4647,-6155 12025,-10134 20332,-10134 8307,0 15685,3979 20332,10134z"/>
  </g>
 </g>
</svg>
