<?xml version="1.0" encoding="UTF-8"?>
<!DOCTYPE svg PUBLIC "-//W3C//DTD SVG 1.1//EN" "http://www.w3.org/Graphics/SVG/1.1/DTD/svg11.dtd">
<!-- Creator: CorelDRAW X7 -->
<svg xmlns="http://www.w3.org/2000/svg" xml:space="preserve" width="144px" height="144px" version="1.1" style="shape-rendering:geometricPrecision; text-rendering:geometricPrecision; image-rendering:optimizeQuality; fill-rule:evenodd; clip-rule:evenodd"
viewBox="0 0 14400 14400"
 xmlns:xlink="http://www.w3.org/1999/xlink">
 <defs>
  <style type="text/css">
   <![CDATA[
    .fil0 {fill:#FEFEFE}
    .fil1 {fill:#ED3237;fill-rule:nonzero}
   ]]>
  </style>
    <clipPath id="id0">
     <path d="M0 0l14400 0 0 14400 -14400 0 0 -14400z"/>
    </clipPath>
 </defs>
 <g id="Layer_x0020_1">
  <metadata id="CorelCorpID_0Corel-Layer"/>
  <g id="_251178688">
   <g style="clip-path:url(#id0)">
    <image x="0" y="0" width="14401" height="14401" xlink:href="144_Images\144_ImgID1.png"/>
   </g>
  </g>
  <rect class="fil0" x="939" y="939" width="12522" height="12522" rx="2774" ry="2774"/>
  <path class="fil1" d="M2612 8931l0 1463 9176 0 0 -1463 464 0 0 1463 0 464 -464 0 -9176 0 -464 0 0 -464 0 -1463 464 0zm8990 -176l0 -450 -267 0c-268,0 -475,-197 -475,-465 0,-270 207,-492 464,-492 257,0 464,229 464,506l0 901 464 0 0 -901c0,-527 -383,-956 -928,-956 -549,0 -932,429 -932,942 0,507 380,915 886,915l324 0zm-2983 0c259,18 468,-32 621,-177 209,-196 234,-497 234,-739 0,-262 50,-330 93,-376 67,-68 163,-92 294,-78l0 -455c-262,-21 -465,39 -618,189 -212,202 -237,479 -237,720 0,267 -47,352 -93,394 -67,68 -174,78 -294,68l0 454zm-537 -1828l-469 0 0 1828 469 0 0 -1828zm-2636 770l0 1058 468 0 0 -1068c0,-206 150,-348 355,-348 309,0 345,245 345,348l0 92 468 0 0 -82c0,-479 -301,-816 -813,-816 -497,0 -823,351 -823,816zm-528 11c0,-474 -299,-807 -804,-807 -235,0 -439,98 -576,256 -130,-158 -330,-256 -576,-256 -495,0 -814,347 -814,807l0 1047 463 0 0 -1057c0,-204 144,-344 351,-344 306,0 337,242 337,344l0 1057 464 0 0 -1057c0,-204 147,-344 351,-344 305,0 340,242 340,344l0 1057 464 0 0 -1047zm4768 -2927l238 0 526 0 1338 0 464 0 0 464 0 1464 -464 0 0 -1464 -592 0 -746 0 -473 0 -513 0 -5 -7 -20 -32 -5 -8 -6 -7 -5 -8 -20 -31 -6 -8 -5 -7 -5 -8 -6 -7 -16 -23 0 0 -5 -7 -6 -8 -5 -7 -6 -8 -16 -22 -6 -8 -5 -7 -6 -7 -6 -7 -11 -15 -6 -7 -6 -8 -6 -7 -5 -7 -6 -7 -12 -14 -6 -8 -6 -7 -6 -7 -6 -7 -6 -7 -12 -14 -6 -7 -6 -7 -6 -6 -7 -7 -18 -21 -6 -7 -7 -6 -6 -7 -6 -7 -7 -7 -12 -13 -7 -7 -13 -13 -6 -7c-484,-489 -1155,-792 -1897,-792 -742,0 -1413,303 -1897,792l-6 7 -13 13 -7 7 -12 13 -7 7 -6 7 -6 7 -7 6 -6 7 -18 21 -7 7 -6 6 -6 7 -6 7 -12 14 -6 7 -6 7 -6 8 -6 7 -24 28 -5 7 -6 8 -6 7 -17 22 -6 7 -6 7 -5 8 -6 7 -16 22 -6 8 -5 7 -6 8 -5 7 0 0 -16 23 -6 7 -5 8 -5 7 -6 8 -20 31 -5 8 -6 7 -5 8 -20 32 -5 7 -513 0 -395 0 -324 0 -1092 0 0 1464 -464 0 0 -1464 0 -464 464 0 1416 0 642 0 44 0c568,-752 1470,-1239 2486,-1239 1016,0 1918,487 2486,1239z"/>
 </g>
</svg>
