<?xml version="1.0" encoding="UTF-8"?>
<!DOCTYPE svg PUBLIC "-//W3C//DTD SVG 1.1//EN" "http://www.w3.org/Graphics/SVG/1.1/DTD/svg11.dtd">
<!-- Creator: CorelDRAW X7 -->
<svg xmlns="http://www.w3.org/2000/svg" xml:space="preserve" width="144px" height="104px" version="1.1" style="shape-rendering:geometricPrecision; text-rendering:geometricPrecision; image-rendering:optimizeQuality; fill-rule:evenodd; clip-rule:evenodd"
viewBox="0 0 14400 10400"
 xmlns:xlink="http://www.w3.org/1999/xlink">
 <defs>
  <style type="text/css">
   <![CDATA[
    .fil0 {fill:#ED3237;fill-rule:nonzero}
   ]]>
  </style>
 </defs>
 <g id="Layer_x0020_1">
  <metadata id="CorelCorpID_0Corel-Layer"/>
  <path class="fil0" d="M664 7665l0 2084 13072 0 0 -2084 661 0 0 2084 0 661 -661 0 -13072 0 -661 0 0 -661 0 -2084 661 0zm12806 -250l0 -642 -381 0c-381,0 -676,-280 -676,-661 0,-386 295,-701 661,-701 366,0 661,325 661,721l0 1283 662 0 0 -1283c0,-751 -546,-1362 -1323,-1362 -782,0 -1328,611 -1328,1342 0,721 541,1303 1263,1303l461 0zm-4249 0c369,25 667,-45 885,-253 298,-278 333,-708 333,-1051 0,-375 71,-471 132,-537 96,-96 232,-131 420,-111l0 -647c-375,-30 -663,56 -880,268 -304,288 -339,683 -339,1027 0,379 -66,500 -131,561 -97,96 -248,111 -420,96l0 647zm-765 -2604l-668 0 0 2604 668 0 0 -2604zm-3755 1097l0 1507 668 0 0 -1522c0,-293 212,-496 505,-496 440,0 491,349 491,496l0 132 667 0 0 -117c0,-682 -429,-1163 -1158,-1163 -707,0 -1173,501 -1173,1163zm-751 16c0,-675 -426,-1150 -1146,-1150 -335,0 -625,140 -820,365 -185,-225 -470,-365 -820,-365 -705,0 -1161,495 -1161,1150l0 1491 661 0 0 -1506c0,-290 205,-490 500,-490 435,0 480,345 480,490l0 1506 660 0 0 -1506c0,-290 210,-490 500,-490 435,0 485,345 485,490l0 1506 661 0 0 -1491zm6792 -4169l338 0 750 0 1906 0 661 0 0 661 0 2084 -661 0 0 -2084 -844 0 -1062 0 -675 0 -731 0 -7 -11 -28 -45 -8 -11 -7 -11 -7 -11 -30 -44 -7 -11 -8 -11 -7 -11 -8 -10 -23 -32 0 -1 -8 -10 -7 -11 -8 -11 -8 -10 -24 -32 -8 -10 -8 -11 -8 -10 -8 -11 -16 -21 -8 -10 -9 -10 -8 -10 -8 -11 -9 -10 -16 -20 -9 -10 -8 -10 -9 -10 -8 -10 -9 -10 -17 -20 -9 -10 -8 -10 -9 -10 -9 -10 -27 -29 -9 -10 -8 -9 -9 -10 -9 -10 -9 -9 -19 -19 -9 -10 -18 -19 -9 -9c-689,-697 -1645,-1129 -2702,-1129 -1057,0 -2013,432 -2702,1129l-9 9 -18 19 -9 10 -19 19 -9 9 -9 10 -9 10 -8 9 -9 10 -27 29 -9 10 -9 10 -8 10 -9 10 -17 20 -9 10 -8 10 -9 10 -8 10 -34 40 -8 11 -8 10 -9 10 -24 31 -8 11 -8 10 -8 11 -8 10 -24 32 -8 10 -8 11 -7 11 -8 10 0 1 -23 32 -8 10 -7 11 -8 11 -7 11 -30 44 -7 11 -7 11 -8 11 -28 45 -7 11 -731 0 -562 0 -462 0 -1557 0 0 2084 -661 0 0 -2084 0 -661 661 0 2019 0 913 0 62 0c810,-1072 2095,-1765 3542,-1765 1447,0 2732,693 3542,1765z"/>
 </g>
</svg>
