<?xml version="1.0" encoding="UTF-8"?>
<!DOCTYPE svg PUBLIC "-//W3C//DTD SVG 1.1//EN" "http://www.w3.org/Graphics/SVG/1.1/DTD/svg11.dtd">
<!-- Creator: CorelDRAW X7 -->
<svg xmlns="http://www.w3.org/2000/svg" xml:space="preserve" width="256px" height="256px" version="1.1" style="shape-rendering:geometricPrecision; text-rendering:geometricPrecision; image-rendering:optimizeQuality; fill-rule:evenodd; clip-rule:evenodd"
viewBox="0 0 25600 25600"
 xmlns:xlink="http://www.w3.org/1999/xlink">
 <defs>
  <style type="text/css">
   <![CDATA[
    .fil0 {fill:#FEFEFE}
    .fil1 {fill:#ED3237;fill-rule:nonzero}
   ]]>
  </style>
    <clipPath id="id0">
     <path d="M0 0l25600 0 0 25600 -25600 0 0 -25600z"/>
    </clipPath>
 </defs>
 <g id="Layer_x0020_1">
  <metadata id="CorelCorpID_0Corel-Layer"/>
  <g id="_250536864">
   <g style="clip-path:url(#id0)">
    <image x="0" y="0" width="25600" height="25600" xlink:href="256_Images\256_ImgID1.png"/>
   </g>
  </g>
  <rect class="fil0" x="1670" y="1670" width="22261" height="22261" rx="4931" ry="4931"/>
  <path class="fil1" d="M4643 15876l0 2602 16314 0 0 -2602 825 0 0 2602 0 824 -825 0 -16314 0 -825 0 0 -824 0 -2602 825 0zm15982 -312l0 -800 -475 0c-475,0 -844,-350 -844,-826 0,-481 369,-875 825,-875 456,0 825,406 825,900l0 1601 826 0 0 -1601c0,-938 -682,-1700 -1651,-1700 -975,0 -1657,762 -1657,1675 0,900 676,1626 1576,1626l575 0zm-5303 1c461,31 833,-57 1104,-316 373,-347 417,-884 417,-1313 0,-467 88,-587 164,-669 120,-120 290,-164 524,-139l0 -807c-467,-38 -827,69 -1098,334 -379,360 -423,852 -423,1281 0,474 -82,625 -164,701 -120,120 -309,139 -524,120l0 808zm-955 -3251l-833 0 0 3251 833 0 0 -3251zm-4685 1370l0 1881 833 0 0 -1900c0,-366 265,-619 631,-619 549,0 612,436 612,619l0 164 833 0 0 -145c0,-852 -537,-1452 -1445,-1452 -884,0 -1464,625 -1464,1452zm-939 20c0,-843 -530,-1436 -1429,-1436 -418,0 -780,175 -1024,456 -231,-281 -587,-456 -1024,-456 -880,0 -1448,618 -1448,1436l0 1860 824 0 0 -1879c0,-362 256,-612 624,-612 544,0 600,431 600,612l0 1879 824 0 0 -1879c0,-362 262,-612 624,-612 543,0 605,431 605,612l0 1879 824 0 0 -1860zm8477 -5204l423 0 935 0 2379 0 825 0 0 825 0 2602 -825 0 0 -2602 -1053 0 -1326 0 -842 0 -912 0 -9 -14 -36 -55 -9 -14 -9 -14 -9 -14 -37 -55 -9 -13 -9 -14 -10 -13 -9 -14 -28 -40 -1 0 -9 -13 -10 -14 -10 -13 -10 -13 -29 -40 -10 -13 -10 -13 -10 -13 -10 -13 -21 -26 -10 -13 -10 -13 -11 -12 -10 -13 -10 -13 -21 -25 -11 -13 -10 -12 -11 -13 -11 -13 -10 -12 -22 -25 -11 -12 -11 -13 -11 -12 -11 -12 -33 -37 -11 -12 -11 -12 -11 -12 -11 -12 -12 -12 -22 -24 -12 -11 -23 -24 -11 -12c-860,-869 -2053,-1408 -3372,-1408 -1319,0 -2512,539 -3372,1408l-11 12 -23 24 -12 11 -22 24 -12 12 -11 12 -11 12 -11 12 -11 12 -33 37 -11 12 -11 12 -11 13 -11 12 -22 25 -10 13 -11 12 -11 13 -10 12 -42 51 -10 13 -11 13 -10 12 -31 39 -10 13 -10 13 -10 13 -10 13 -29 40 -10 13 -10 13 -10 14 -9 13 0 0 -29 40 -9 14 -10 13 -9 14 -9 13 -37 55 -9 14 -9 14 -9 14 -36 55 -9 14 -912 0 -702 0 -576 0 -1943 0 0 2602 -825 0 0 -2602 0 -825 825 0 2519 0 1140 0 78 0c1010,-1338 2614,-2203 4420,-2203 1806,0 3410,865 4420,2203z"/>
 </g>
</svg>
