<?xml version="1.0" encoding="UTF-8"?>
<!DOCTYPE svg PUBLIC "-//W3C//DTD SVG 1.1//EN" "http://www.w3.org/Graphics/SVG/1.1/DTD/svg11.dtd">
<!-- Creator: CorelDRAW X7 -->
<svg xmlns="http://www.w3.org/2000/svg" xml:space="preserve" width="256px" height="185px" version="1.1" style="shape-rendering:geometricPrecision; text-rendering:geometricPrecision; image-rendering:optimizeQuality; fill-rule:evenodd; clip-rule:evenodd"
viewBox="0 0 25600 18500"
 xmlns:xlink="http://www.w3.org/1999/xlink">
 <defs>
  <style type="text/css">
   <![CDATA[
    .fil0 {fill:#ED3237;fill-rule:nonzero}
   ]]>
  </style>
 </defs>
 <g id="Layer_x0020_1">
  <metadata id="CorelCorpID_0Corel-Layer"/>
  <path class="fil0" d="M1182 13632l0 3705 23236 0 0 -3705 1175 0 0 3705 0 1175 -1175 0 -23236 0 -1175 0 0 -1175 0 -3705 1175 0zm22764 -445l0 -1140 -677 0c-677,0 -1203,-499 -1203,-1176 0,-685 526,-1246 1176,-1246 650,0 1176,579 1176,1282l0 2280 1175 0 0 -2280c0,-1336 -970,-2422 -2351,-2422 -1389,0 -2360,1086 -2360,2386 0,1283 962,2316 2244,2316l820 0zm-7554 1c656,45 1187,-81 1573,-450 531,-494 594,-1258 594,-1869 0,-666 125,-837 233,-953 171,-171 414,-234 746,-198l0 -1151c-665,-53 -1177,99 -1564,477 -539,512 -602,1213 -602,1825 0,674 -117,890 -234,997 -170,171 -440,198 -746,171l0 1151zm-1359 -4630l-1187 0 0 4630 1187 0 0 -4630zm-6675 1951l0 2679 1187 0 0 -2706c0,-521 377,-881 899,-881 782,0 872,620 872,881l0 234 1186 0 0 -207c0,-1214 -764,-2068 -2058,-2068 -1259,0 -2086,890 -2086,2068zm-1336 28c0,-1200 -756,-2045 -2036,-2045 -596,0 -1112,249 -1458,650 -329,-401 -836,-650 -1458,-650 -1254,0 -2063,881 -2063,2045l0 2650 1174 0 0 -2676c0,-516 364,-872 889,-872 773,0 853,614 853,872l0 2676 1174 0 0 -2676c0,-516 373,-872 889,-872 773,0 862,614 862,872l0 2676 1174 0 0 -2650zm12074 -7411l602 0 1332 0 3388 0 1175 0 0 1175 0 3705 -1175 0 0 -3705 -1499 0 -1889 0 -1199 0 -1300 0 -12 -20 -51 -79 -13 -20 -13 -20 -13 -19 -52 -78 -13 -20 -14 -19 -13 -19 -14 -19 -40 -57 0 -1 -14 -19 -14 -19 -14 -19 -14 -19 -42 -56 -14 -19 -14 -18 -15 -19 -14 -18 -29 -37 -15 -18 -14 -19 -15 -18 -15 -18 -15 -18 -29 -37 -15 -18 -16 -18 -15 -17 -15 -18 -15 -18 -31 -35 -15 -18 -16 -18 -15 -17 -16 -18 -47 -51 -16 -18 -16 -17 -16 -17 -16 -17 -16 -17 -32 -34 -16 -17 -33 -33 -17 -17c-1224,-1239 -2923,-2006 -4802,-2006 -1879,0 -3578,767 -4802,2006l-17 17 -33 33 -16 17 -32 34 -16 17 -16 17 -16 17 -16 17 -16 18 -47 51 -16 18 -15 17 -16 18 -15 18 -31 35 -15 18 -15 18 -15 18 -16 18 -59 72 -15 18 -15 18 -14 19 -44 55 -14 18 -15 19 -14 19 -14 18 -42 56 -14 19 -14 19 -14 19 -14 19 0 1 -40 57 -14 19 -13 19 -14 19 -13 20 -52 78 -13 19 -13 20 -13 20 -51 79 -12 20 -1300 0 -999 0 -821 0 -2767 0 0 3705 -1175 0 0 -3705 0 -1175 1175 0 3588 0 1624 0 110 0c1439,-1906 3724,-3138 6296,-3138 2572,0 4857,1232 6296,3138z"/>
 </g>
</svg>
