<?xml version="1.0" encoding="UTF-8"?>
<!DOCTYPE svg PUBLIC "-//W3C//DTD SVG 1.1//EN" "http://www.w3.org/Graphics/SVG/1.1/DTD/svg11.dtd">
<!-- Creator: CorelDRAW X7 -->
<svg xmlns="http://www.w3.org/2000/svg" xml:space="preserve" width="30px" height="30px" version="1.1" style="shape-rendering:geometricPrecision; text-rendering:geometricPrecision; image-rendering:optimizeQuality; fill-rule:evenodd; clip-rule:evenodd"
viewBox="0 0 3000 3000"
 xmlns:xlink="http://www.w3.org/1999/xlink">
 <defs>
  <style type="text/css">
   <![CDATA[
    .fil0 {fill:#F7F7F8}
    .fil1 {fill:#ED3237;fill-rule:nonzero}
   ]]>
  </style>
 </defs>
 <g id="Layer_x0020_1">
  <metadata id="CorelCorpID_0Corel-Layer"/>
  <g id="_249197328">
   <rect class="fil0" x="-10" y="-10" width="3019" height="3019" rx="669" ry="669"/>
   <path class="fil1" d="M394 1917l0 353 2212 0 0 -353 112 0 0 353 0 112 -112 0 -2212 0 -112 0 0 -112 0 -353 112 0zm2167 -42l0 -109 -64 0c-65,0 -115,-47 -115,-112 0,-65 50,-118 112,-118 62,0 112,55 112,122l0 217 112 0 0 -217c0,-127 -92,-231 -224,-231 -132,0 -224,104 -224,227 0,122 91,221 213,221l78 0zm-719 0c63,4 113,-8 150,-43 50,-47 56,-120 56,-178 0,-63 12,-79 23,-91 16,-16 39,-22 71,-18l0 -110c-64,-5 -113,9 -149,45 -52,49 -58,116 -58,174 0,64 -11,85 -22,95 -16,16 -42,19 -71,16l0 110zm-129 -441l-113 0 0 441 113 0 0 -441zm-636 186l0 255 113 0 0 -258c0,-49 36,-84 86,-84 74,0 83,59 83,84l0 23 113 0 0 -20c0,-116 -73,-197 -196,-197 -120,0 -199,85 -199,197zm-127 3c0,-115 -72,-195 -194,-195 -57,0 -106,24 -139,62 -31,-38 -79,-62 -139,-62 -119,0 -196,84 -196,195l0 252 112 0 0 -255c0,-49 34,-83 84,-83 74,0 81,58 81,83l0 255 112 0 0 -255c0,-49 36,-83 85,-83 74,0 82,58 82,83l0 255 112 0 0 -252zm1150 -706l57 0 127 0 322 0 112 0 0 112 0 353 -112 0 0 -353 -142 0 -180 0 -115 0 -123 0 -2 -2 -4 -8 -2 -2 -1 -1 -1 -2 -5 -8 -1 -2 -1 -1 -2 -2 -1 -2 -4 -5 0 -1 -1 -1 -2 -2 -1 -2 -1 -2 -4 -5 -2 -2 -1 -2 -1 -1 -2 -2 -2 -4 -2 -1 -1 -2 -2 -2 -1 -2 -1 -1 -3 -4 -2 -2 -1 -1 -2 -2 -1 -2 -1 -1 -3 -4 -2 -1 -1 -2 -2 -2 -1 -1 -5 -5 -1 -2 -2 -2 -1 -1 -2 -2 -1 -2 -4 -3 -1 -1 -3 -4 -2 -1c-116,-118 -278,-191 -457,-191 -179,0 -341,73 -457,191l-2 1 -3 4 -1 1 -4 3 -1 2 -2 2 -1 1 -2 2 -1 2 -5 5 -1 1 -2 2 -1 2 -2 1 -3 4 -1 1 -1 2 -2 2 -1 1 -6 7 -1 2 -2 2 -1 2 -4 5 -2 2 -1 1 -1 2 -2 2 -4 5 -1 2 -1 2 -2 2 -1 1 0 1 -4 5 -1 2 -2 2 -1 1 -1 2 -5 8 -1 2 -1 1 -2 2 -4 8 -2 2 -123 0 -96 0 -78 0 -263 0 0 353 -112 0 0 -353 0 -112 112 0 341 0 155 0 10 0c138,-182 355,-299 600,-299 245,0 462,117 600,299z"/>
  </g>
 </g>
</svg>
