<?xml version="1.0" encoding="UTF-8"?>
<!DOCTYPE svg PUBLIC "-//W3C//DTD SVG 1.1//EN" "http://www.w3.org/Graphics/SVG/1.1/DTD/svg11.dtd">
<!-- Creator: CorelDRAW X7 -->
<svg xmlns="http://www.w3.org/2000/svg" xml:space="preserve" width="30px" height="21px" version="1.1" style="shape-rendering:geometricPrecision; text-rendering:geometricPrecision; image-rendering:optimizeQuality; fill-rule:evenodd; clip-rule:evenodd"
viewBox="0 0 3000 2100"
 xmlns:xlink="http://www.w3.org/1999/xlink">
 <defs>
  <style type="text/css">
   <![CDATA[
    .fil0 {fill:#ED3237;fill-rule:nonzero}
   ]]>
  </style>
 </defs>
 <g id="Layer_x0020_1">
  <metadata id="CorelCorpID_0Corel-Layer"/>
  <path class="fil0" d="M160 1555l0 428 2680 0 0 -428 135 0 0 428 0 135 -135 0 -2680 0 -135 0 0 -135 0 -428 135 0zm2625 -51l0 -132 -78 0c-78,0 -138,-57 -138,-135 0,-79 60,-144 135,-144 75,0 136,67 136,148l0 263 135 0 0 -263c0,-154 -112,-279 -271,-279 -160,0 -272,125 -272,275 0,148 111,267 259,267l94 0zm-871 0c76,5 137,-9 182,-52 61,-57 68,-145 68,-215 0,-77 15,-97 27,-110 20,-20 48,-27 86,-23l0 -133c-77,-6 -136,12 -180,55 -63,59 -70,140 -70,211 0,77 -13,102 -27,115 -19,19 -51,22 -86,19l0 133zm-157 -534l-136 0 0 534 136 0 0 -534zm-769 225l0 309 137 0 0 -312c0,-60 43,-102 103,-102 90,0 101,72 101,102l0 27 137 0 0 -24c0,-140 -88,-238 -238,-238 -145,0 -240,102 -240,238zm-154 3c0,-138 -88,-235 -235,-235 -69,0 -128,28 -168,74 -38,-46 -97,-74 -169,-74 -144,0 -237,101 -237,235l0 306 135 0 0 -309c0,-59 42,-100 102,-100 90,0 99,71 99,100l0 309 135 0 0 -309c0,-59 43,-100 103,-100 89,0 99,71 99,100l0 309 136 0 0 -306zm1392 -854l69 0 154 0 391 0 135 0 0 135 0 427 -135 0 0 -427 -173 0 -218 0 -138 0 -150 0 -2 -2 -5 -9 -2 -3 -1 -2 -2 -2 -6 -9 -1 -2 -2 -2 -1 -3 -2 -2 -5 -6 0 -1 -1 -2 -2 -2 -2 -2 -1 -2 -5 -7 -2 -2 -1 -2 -2 -2 -2 -2 -3 -5 -2 -2 -1 -2 -2 -2 -2 -2 -1 -2 -4 -4 -2 -2 -1 -2 -2 -2 -2 -3 -2 -2 -3 -4 -2 -2 -2 -2 -2 -2 -1 -2 -6 -6 -2 -2 -1 -2 -2 -2 -2 -2 -2 -2 -4 -4 -2 -2 -3 -3 -2 -2c-141,-143 -337,-232 -554,-232 -217,0 -413,89 -554,232l-2 2 -4 3 -1 2 -4 4 -2 2 -2 2 -2 2 -2 2 -1 2 -6 6 -2 2 -1 2 -2 2 -2 2 -4 4 -1 2 -2 3 -2 2 -2 2 -6 8 -2 2 -2 2 -1 2 -6 7 -1 2 -2 2 -1 2 -2 2 -5 7 -2 2 -1 2 -2 2 -1 2 0 1 -5 6 -2 2 -1 3 -2 2 -1 2 -6 9 -2 2 -1 2 -2 3 -6 9 -1 2 -150 0 -115 0 -95 0 -319 0 0 427 -135 0 0 -427 0 -135 135 0 414 0 187 0 13 0c166,-220 429,-362 726,-362 297,0 560,142 726,362z"/>
 </g>
</svg>
