<?xml version="1.0" encoding="UTF-8"?>
<!DOCTYPE svg PUBLIC "-//W3C//DTD SVG 1.1//EN" "http://www.w3.org/Graphics/SVG/1.1/DTD/svg11.dtd">
<!-- Creator: CorelDRAW X7 -->
<svg xmlns="http://www.w3.org/2000/svg" xml:space="preserve" width="48px" height="48px" version="1.1" style="shape-rendering:geometricPrecision; text-rendering:geometricPrecision; image-rendering:optimizeQuality; fill-rule:evenodd; clip-rule:evenodd"
viewBox="0 0 4800 4800"
 xmlns:xlink="http://www.w3.org/1999/xlink">
 <defs>
  <style type="text/css">
   <![CDATA[
    .fil0 {fill:#F7F7F8}
    .fil1 {fill:#ED3237;fill-rule:nonzero}
   ]]>
  </style>
 </defs>
 <g id="Layer_x0020_1">
  <metadata id="CorelCorpID_0Corel-Layer"/>
  <g id="_478896776">
   <rect class="fil0" width="4800" height="4800" rx="1063" ry="1063"/>
   <path class="fil1" d="M641 3063l0 561 3518 0 0 -561 178 0 0 561 0 178 -178 0 -3518 0 -178 0 0 -178 0 -561 178 0zm3446 -67l0 -173 -102 0c-103,0 -182,-75 -182,-178 0,-103 79,-188 178,-188 98,0 178,87 178,194l0 345 178 0 0 -345c0,-202 -147,-367 -356,-367 -210,0 -357,165 -357,361 0,195 145,351 339,351l124 0zm-1143 0c99,7 179,-12 238,-68 80,-75 90,-190 90,-283 0,-101 19,-127 35,-144 26,-26 63,-36 113,-30l0 -174c-101,-9 -178,15 -237,72 -81,77 -91,183 -91,276 0,102 -18,135 -35,151 -26,26 -67,30 -113,26l0 174zm-206 -701l-180 0 0 701 180 0 0 -701zm-1010 296l0 405 179 0 0 -409c0,-79 57,-134 136,-134 119,0 132,94 132,134l0 35 180 0 0 -31c0,-184 -116,-313 -312,-313 -190,0 -315,134 -315,313zm-203 4c0,-182 -114,-310 -308,-310 -90,0 -168,38 -221,99 -50,-61 -126,-99 -220,-99 -190,0 -313,134 -313,310l0 401 178 0 0 -405c0,-78 55,-132 135,-132 117,0 129,93 129,132l0 405 177 0 0 -405c0,-78 57,-132 135,-132 117,0 131,93 131,132l0 405 177 0 0 -401zm1828 -1122l91 0 202 0 513 0 178 0 0 178 0 561 -178 0 0 -561 -227 0 -286 0 -182 0 -196 0 -2 -3 -8 -12 -2 -3 -2 -3 -2 -3 -8 -12 -2 -3 -2 -3 -2 -3 -2 -3 -6 -8 0 0 -2 -3 -2 -3 -2 -3 -2 -3 -7 -8 -2 -3 -2 -3 -2 -3 -2 -3 -5 -5 -2 -3 -2 -3 -2 -3 -3 -2 -2 -3 -4 -6 -3 -2 -2 -3 -2 -3 -3 -2 -2 -3 -5 -5 -2 -3 -2 -3 -3 -2 -2 -3 -7 -8 -2 -2 -3 -3 -2 -3 -3 -2 -2 -3 -5 -5 -2 -3 -5 -5 -3 -2c-185,-188 -443,-304 -727,-304 -284,0 -542,116 -727,304l-3 2 -5 5 -2 3 -5 5 -2 3 -3 2 -2 3 -3 3 -2 2 -7 8 -2 3 -3 2 -2 3 -2 3 -5 5 -2 3 -3 2 -2 3 -2 3 -9 11 -3 2 -2 3 -2 3 -7 8 -2 3 -2 3 -2 3 -2 3 -7 8 -2 3 -2 3 -2 3 -2 3 0 0 -6 8 -2 3 -2 3 -2 3 -2 3 -8 12 -2 3 -2 3 -2 3 -8 12 -2 3 -196 0 -152 0 -124 0 -419 0 0 561 -178 0 0 -561 0 -178 178 0 543 0 246 0 17 0c218,-289 564,-475 953,-475 389,0 735,186 953,475z"/>
  </g>
 </g>
</svg>
