<?xml version="1.0" encoding="UTF-8"?>
<!DOCTYPE svg PUBLIC "-//W3C//DTD SVG 1.1//EN" "http://www.w3.org/Graphics/SVG/1.1/DTD/svg11.dtd">
<!-- Creator: CorelDRAW X7 -->
<svg xmlns="http://www.w3.org/2000/svg" xml:space="preserve" width="48px" height="35px" version="1.1" style="shape-rendering:geometricPrecision; text-rendering:geometricPrecision; image-rendering:optimizeQuality; fill-rule:evenodd; clip-rule:evenodd"
viewBox="0 0 4800 3500"
 xmlns:xlink="http://www.w3.org/1999/xlink">
 <defs>
  <style type="text/css">
   <![CDATA[
    .fil0 {fill:#ED3237;fill-rule:nonzero}
   ]]>
  </style>
 </defs>
 <g id="Layer_x0020_1">
  <metadata id="CorelCorpID_0Corel-Layer"/>
  <path class="fil0" d="M219 2572l0 696 4362 0 0 -696 220 0 0 696 0 221 -220 0 -4362 0 -220 0 0 -221 0 -696 220 0zm4273 -83l0 -214 -127 0c-127,0 -226,-94 -226,-221 0,-128 99,-234 221,-234 122,0 221,109 221,241l0 428 220 0 0 -428c0,-251 -182,-455 -441,-455 -261,0 -443,204 -443,448 0,241 181,435 421,435l154 0zm-1418 0c123,9 223,-15 295,-84 100,-93 112,-236 112,-351 0,-125 23,-157 44,-179 32,-32 77,-44 140,-37l0 -216c-125,-10 -221,18 -294,89 -101,96 -113,228 -113,343 0,126 -22,167 -44,187 -32,32 -82,37 -140,32l0 216zm-255 -869l-223 0 0 869 223 0 0 -869zm-1253 366l0 503 223 0 0 -508c0,-98 71,-165 169,-165 146,0 163,116 163,165l0 44 223 0 0 -39c0,-227 -143,-388 -386,-388 -237,0 -392,167 -392,388zm-251 6c0,-226 -142,-384 -382,-384 -112,0 -209,46 -273,122 -62,-76 -157,-122 -274,-122 -236,0 -387,165 -387,384l0 497 220 0 0 -502c0,-97 68,-164 167,-164 145,0 160,115 160,164l0 502 220 0 0 -502c0,-97 70,-164 167,-164 145,0 162,115 162,164l0 502 220 0 0 -497zm2267 -1392l113 0 250 0 636 0 220 0 0 221 0 695 -220 0 0 -695 -282 0 -354 0 -225 0 -244 0 -3 -4 -9 -15 -3 -3 -2 -4 -2 -4 -10 -14 -3 -4 -2 -4 -3 -3 -2 -4 -8 -10 0 -1 -3 -3 -2 -4 -3 -3 -2 -4 -8 -10 -3 -4 -3 -3 -2 -4 -3 -3 -5 -7 -3 -4 -3 -3 -3 -4 -2 -3 -3 -3 -6 -7 -3 -4 -2 -3 -3 -3 -3 -4 -3 -3 -6 -7 -3 -3 -3 -3 -2 -3 -3 -4 -9 -10 -3 -3 -3 -3 -3 -3 -3 -3 -3 -4 -6 -6 -3 -3 -7 -6 -3 -4c-229,-232 -548,-376 -901,-376 -353,0 -672,144 -902,376l-3 4 -6 6 -3 3 -6 6 -3 4 -3 3 -3 3 -3 3 -3 3 -9 10 -3 4 -3 3 -2 3 -3 3 -6 7 -3 3 -3 4 -3 3 -3 3 -11 14 -2 3 -3 4 -3 3 -8 11 -3 3 -2 4 -3 3 -3 4 -8 10 -2 4 -3 3 -3 4 -2 3 0 1 -8 10 -2 4 -3 3 -2 4 -3 4 -10 14 -2 4 -3 4 -2 3 -10 15 -2 4 -244 0 -187 0 -155 0 -519 0 0 695 -220 0 0 -695 0 -221 220 0 674 0 304 0 21 0c270,-357 699,-589 1182,-589 483,0 912,232 1182,589z"/>
 </g>
</svg>
