<?xml version="1.0" encoding="UTF-8"?>
<!DOCTYPE svg PUBLIC "-//W3C//DTD SVG 1.1//EN" "http://www.w3.org/Graphics/SVG/1.1/DTD/svg11.dtd">
<!-- Creator: CorelDRAW X7 -->
<svg xmlns="http://www.w3.org/2000/svg" xml:space="preserve" width="512px" height="512px" version="1.1" style="shape-rendering:geometricPrecision; text-rendering:geometricPrecision; image-rendering:optimizeQuality; fill-rule:evenodd; clip-rule:evenodd"
viewBox="0 0 51200 51200"
 xmlns:xlink="http://www.w3.org/1999/xlink">
 <defs>
  <style type="text/css">
   <![CDATA[
    .fil0 {fill:#FEFEFE}
    .fil1 {fill:#ED3237;fill-rule:nonzero}
   ]]>
  </style>
 </defs>
 <g id="Layer_x0020_1">
  <metadata id="CorelCorpID_0Corel-Layer"/>
  <g id="_246938768">
   <rect class="fil0" width="51200" height="51200" rx="11342" ry="11342"/>
   <path class="fil1" d="M6839 32675l0 5983 37522 0 0 -5983 1897 0 0 5983 0 1897 -1897 0 -37522 0 -1897 0 0 -1897 0 -5983 1897 0zm36759 -719l0 -1840 -1093 0c-1093,0 -1942,-805 -1942,-1898 0,-1108 849,-2014 1899,-2014 1049,0 1898,935 1898,2071l0 3681 1898 0 0 -3681c0,-2157 -1567,-3911 -3796,-3911 -2244,0 -3811,1754 -3811,3854 0,2070 1553,3738 3624,3738l1323 0zm-12198 2c1060,72 1917,-131 2540,-726 857,-798 959,-2032 959,-3019 0,-1074 203,-1350 377,-1539 276,-275 668,-377 1205,-319l0 -1858c-1074,-87 -1901,160 -2526,769 -871,828 -972,1960 -972,2947 0,1089 -189,1437 -377,1611 -276,276 -712,319 -1206,276l0 1858zm-2195 -7476l-1916 0 0 7476 1916 0 0 -7476zm-10778 3150l0 4326 1916 0 0 -4369c0,-842 610,-1423 1452,-1423 1263,0 1408,1002 1408,1423l0 377 1916 0 0 -334c0,-1959 -1234,-3338 -3324,-3338 -2032,0 -3368,1437 -3368,3338zm-2158 46c0,-1938 -1220,-3302 -3287,-3302 -962,0 -1795,402 -2355,1048 -531,-646 -1349,-1048 -2354,-1048 -2024,0 -3331,1421 -3331,3302l0 4278 1895 0 0 -4321c0,-833 589,-1407 1436,-1407 1249,0 1378,991 1378,1407l0 4321 1895 0 0 -4321c0,-833 603,-1407 1436,-1407 1249,0 1392,991 1392,1407l0 4321 1895 0 0 -4278zm19497 -11968l972 0 2151 0 5472 0 1897 0 0 1898 0 5982 -1897 0 0 -5982 -2421 0 -3051 0 -1936 0 -2098 0 -20 -33 -82 -128 -21 -31 -21 -32 -21 -32 -85 -126 -21 -31 -22 -31 -21 -31 -22 -31 -65 -92 -1 -1 -22 -30 -22 -31 -23 -31 -22 -30 -68 -91 -23 -30 -23 -30 -24 -30 -23 -30 -47 -60 -23 -29 -24 -30 -23 -30 -24 -29 -24 -29 -48 -59 -25 -29 -24 -29 -24 -29 -25 -28 -24 -29 -50 -57 -25 -29 -25 -28 -25 -28 -25 -28 -76 -84 -26 -28 -26 -28 -25 -28 -26 -27 -26 -28 -52 -54 -27 -27 -53 -55 -26 -27c-1977,-2000 -4721,-3239 -7755,-3239 -3034,0 -5778,1239 -7755,3239l-26 27 -53 55 -26 27 -53 54 -26 28 -26 27 -25 28 -26 28 -26 28 -76 84 -25 28 -25 28 -25 29 -25 28 -50 57 -24 29 -25 29 -24 29 -24 29 -97 116 -24 30 -23 29 -24 30 -70 89 -23 30 -24 30 -23 30 -23 30 -68 91 -22 30 -23 31 -22 31 -22 30 -1 1 -65 92 -22 31 -21 31 -22 31 -21 31 -85 126 -21 32 -21 32 -21 31 -82 128 -20 33 -2098 0 -1614 0 -1326 0 -4468 0 0 5982 -1897 0 0 -5982 0 -1898 1897 0 5794 0 2623 0 178 0c2323,-3077 6012,-5067 10166,-5067 4154,0 7843,1990 10166,5067z"/>
  </g>
 </g>
</svg>
