<?xml version="1.0" encoding="UTF-8"?>
<!DOCTYPE svg PUBLIC "-//W3C//DTD SVG 1.1//EN" "http://www.w3.org/Graphics/SVG/1.1/DTD/svg11.dtd">
<!-- Creator: CorelDRAW X7 -->
<svg xmlns="http://www.w3.org/2000/svg" xml:space="preserve" width="512px" height="371px" version="1.1" style="shape-rendering:geometricPrecision; text-rendering:geometricPrecision; image-rendering:optimizeQuality; fill-rule:evenodd; clip-rule:evenodd"
viewBox="0 0 51200 37100"
 xmlns:xlink="http://www.w3.org/1999/xlink">
 <defs>
  <style type="text/css">
   <![CDATA[
    .fil0 {fill:#ED3237;fill-rule:nonzero}
   ]]>
  </style>
 </defs>
 <g id="Layer_x0020_1">
  <metadata id="CorelCorpID_0Corel-Layer"/>
  <path class="fil0" d="M2331 27326l0 7421 46538 0 0 -7421 2353 0 0 7421 0 2353 -2353 0 -46538 0 -2353 0 0 -2353 0 -7421 2353 0zm45592 -891l0 -2283 -1356 0c-1355,0 -2408,-999 -2408,-2354 0,-1374 1053,-2498 2355,-2498 1301,0 2354,1160 2354,2569l0 4566 2354 0 0 -4566c0,-2676 -1944,-4852 -4708,-4852 -2783,0 -4727,2176 -4727,4781 0,2568 1926,4637 4495,4637l1641 0zm-15129 2c1315,90 2377,-162 3151,-901 1062,-990 1188,-2520 1188,-3744 0,-1332 252,-1675 469,-1909 342,-342 828,-468 1494,-396l0 -2304c-1333,-108 -2359,198 -3133,954 -1080,1026 -1206,2430 -1206,3655 0,1350 -234,1782 -468,1998 -342,342 -882,396 -1495,342l0 2305zm-2723 -9272l-2376 0 0 9272 2376 0 0 -9272zm-13367 3906l0 5366 2376 0 0 -5419c0,-1045 757,-1765 1801,-1765 1566,0 1746,1242 1746,1765l0 468 2377 0 0 -415c0,-2430 -1531,-4140 -4123,-4140 -2521,0 -4177,1782 -4177,4140zm-2677 57c0,-2403 -1513,-4095 -4077,-4095 -1194,0 -2226,499 -2921,1300 -659,-801 -1674,-1300 -2920,-1300 -2511,0 -4131,1763 -4131,4095l0 5307 2350 0 0 -5360c0,-1033 731,-1745 1781,-1745 1549,0 1709,1228 1709,1745l0 5360 2351 0 0 -5360c0,-1033 748,-1745 1781,-1745 1549,0 1727,1228 1727,1745l0 5360 2350 0 0 -5307zm24182 -14843l1206 0 2668 0 6786 0 2353 0 0 2353 0 7420 -2353 0 0 -7420 -3003 0 -3783 0 -2402 0 -2602 0 -25 -40 -102 -159 -26 -39 -25 -40 -26 -39 -106 -156 -26 -39 -27 -38 -27 -39 -27 -39 -80 -113 -1 -1 -28 -38 -28 -38 -28 -39 -28 -37 -84 -113 -29 -38 -28 -36 -29 -38 -28 -37 -59 -74 -29 -36 -29 -37 -29 -37 -30 -36 -29 -37 -60 -72 -30 -36 -31 -36 -30 -36 -30 -36 -31 -35 -61 -71 -31 -35 -31 -35 -31 -35 -32 -35 -94 -105 -32 -34 -31 -35 -32 -34 -33 -34 -32 -34 -65 -68 -32 -34 -66 -67 -32 -33c-2452,-2481 -5856,-4018 -9619,-4018 -3763,0 -7167,1537 -9619,4018l-32 33 -66 67 -32 34 -65 68 -32 34 -33 34 -32 34 -31 35 -32 34 -94 105 -32 35 -31 35 -31 35 -31 35 -61 71 -31 36 -30 36 -30 35 -31 36 -119 145 -30 37 -29 36 -29 37 -88 110 -28 37 -29 38 -29 37 -28 37 -84 113 -28 38 -28 38 -28 38 -28 38 0 0 -81 114 -27 39 -27 39 -27 38 -26 39 -106 156 -26 39 -25 40 -26 39 -102 159 -25 40 -2602 0 -2002 0 -1645 0 -5541 0 0 7420 -2353 0 0 -7420 0 -2353 2353 0 7186 0 3253 0 221 0c2882,-3817 7457,-6285 12609,-6285 5152,0 9727,2468 12609,6285z"/>
 </g>
</svg>
