<?xml version="1.0" encoding="UTF-8"?>
<!DOCTYPE svg PUBLIC "-//W3C//DTD SVG 1.1//EN" "http://www.w3.org/Graphics/SVG/1.1/DTD/svg11.dtd">
<!-- Creator: CorelDRAW X7 -->
<svg xmlns="http://www.w3.org/2000/svg" xml:space="preserve" width="72px" height="72px" version="1.1" style="shape-rendering:geometricPrecision; text-rendering:geometricPrecision; image-rendering:optimizeQuality; fill-rule:evenodd; clip-rule:evenodd"
viewBox="0 0 7200 7200"
 xmlns:xlink="http://www.w3.org/1999/xlink">
 <defs>
  <style type="text/css">
   <![CDATA[
    .fil0 {fill:#F7F7F8}
    .fil1 {fill:#ED3237;fill-rule:nonzero}
   ]]>
  </style>
 </defs>
 <g id="Layer_x0020_1">
  <metadata id="CorelCorpID_0Corel-Layer"/>
  <g id="_251373760">
   <rect class="fil0" width="7200" height="7200" rx="1595" ry="1595"/>
   <path class="fil1" d="M962 4595l0 841 5276 0 0 -841 267 0 0 841 0 267 -267 0 -5276 0 -267 0 0 -267 0 -841 267 0zm5169 -101l0 -259 -154 0c-153,0 -273,-113 -273,-267 0,-156 120,-283 267,-283 148,0 267,132 267,291l0 518 267 0 0 -518c0,-303 -220,-550 -534,-550 -315,0 -536,247 -536,542 0,291 219,526 510,526l186 0zm-1715 0c149,10 269,-18 357,-102 120,-112 135,-286 135,-424 0,-151 28,-190 53,-217 39,-39 94,-53 169,-45l0 -261c-151,-12 -267,22 -355,108 -122,117 -137,276 -137,415 0,153 -26,202 -53,226 -39,39 -100,45 -169,39l0 261zm-309 -1051l-269 0 0 1051 269 0 0 -1051zm-1516 443l0 608 270 0 0 -614c0,-119 85,-200 204,-200 177,0 198,141 198,200l0 53 269 0 0 -47c0,-276 -173,-470 -467,-470 -286,0 -474,202 -474,470zm-303 6c0,-272 -172,-464 -463,-464 -135,0 -252,57 -331,147 -74,-90 -189,-147 -331,-147 -284,0 -468,200 -468,464l0 602 266 0 0 -608c0,-117 83,-198 202,-198 176,0 194,140 194,198l0 608 267 0 0 -608c0,-117 84,-198 201,-198 176,0 196,140 196,198l0 608 267 0 0 -602zm2742 -1683l136 0 303 0 769 0 267 0 0 267 0 841 -267 0 0 -841 -340 0 -429 0 -272 0 -296 0 -2 -4 -12 -18 -3 -5 -3 -4 -3 -5 -12 -17 -3 -5 -3 -4 -3 -5 -3 -4 -9 -13 0 0 -3 -4 -3 -5 -3 -4 -4 -4 -9 -13 -3 -4 -4 -4 -3 -5 -3 -4 -7 -8 -3 -4 -3 -5 -4 -4 -3 -4 -3 -4 -7 -8 -4 -4 -3 -4 -3 -4 -4 -4 -3 -4 -7 -9 -4 -4 -3 -4 -4 -4 -3 -3 -11 -12 -4 -4 -3 -4 -4 -4 -4 -4 -3 -4 -8 -7 -3 -4 -8 -8 -3 -4c-278,-281 -664,-455 -1091,-455 -427,0 -813,174 -1091,455l-3 4 -8 8 -3 4 -8 7 -3 4 -4 4 -4 4 -3 4 -4 4 -11 12 -3 3 -4 4 -3 4 -4 4 -7 9 -3 4 -4 4 -3 4 -3 4 -14 16 -3 4 -4 4 -3 5 -10 12 -3 4 -3 5 -4 4 -3 4 -9 13 -4 4 -3 4 -3 5 -3 4 0 0 -9 13 -3 4 -3 5 -3 4 -3 5 -12 17 -3 5 -3 4 -3 5 -12 18 -2 4 -296 0 -227 0 -186 0 -628 0 0 841 -267 0 0 -841 0 -267 267 0 814 0 369 0 25 0c327,-432 846,-712 1430,-712 584,0 1103,280 1430,712z"/>
  </g>
 </g>
</svg>
