<?xml version="1.0" encoding="UTF-8"?>
<!DOCTYPE svg PUBLIC "-//W3C//DTD SVG 1.1//EN" "http://www.w3.org/Graphics/SVG/1.1/DTD/svg11.dtd">
<!-- Creator: CorelDRAW X7 -->
<svg xmlns="http://www.w3.org/2000/svg" xml:space="preserve" width="72px" height="52px" version="1.1" style="shape-rendering:geometricPrecision; text-rendering:geometricPrecision; image-rendering:optimizeQuality; fill-rule:evenodd; clip-rule:evenodd"
viewBox="0 0 7200 5200"
 xmlns:xlink="http://www.w3.org/1999/xlink">
 <defs>
  <style type="text/css">
   <![CDATA[
    .fil0 {fill:#ED3237;fill-rule:nonzero}
   ]]>
  </style>
 </defs>
 <g id="Layer_x0020_1">
  <metadata id="CorelCorpID_0Corel-Layer"/>
  <path class="fil0" d="M328 3834l0 1043 6544 0 0 -1043 331 0 0 1043 0 331 -331 0 -6544 0 -331 0 0 -331 0 -1043 331 0zm6411 -125l0 -321 -191 0c-190,0 -338,-141 -338,-331 0,-194 148,-352 331,-352 183,0 331,164 331,362l0 642 331 0 0 -642c0,-377 -274,-683 -662,-683 -392,0 -665,306 -665,673 0,361 271,652 632,652l231 0zm-2128 0c185,13 335,-23 444,-127 149,-139 167,-354 167,-526 0,-187 35,-236 65,-269 49,-48 117,-65 211,-55l0 -324c-188,-15 -332,28 -441,134 -152,144 -169,342 -169,514 0,190 -33,250 -66,281 -48,48 -124,55 -211,48l0 324zm-382 -1304l-335 0 0 1304 335 0 0 -1304zm-1880 550l0 754 334 0 0 -762c0,-147 107,-248 253,-248 221,0 246,175 246,248l0 66 334 0 0 -58c0,-342 -215,-583 -580,-583 -354,0 -587,251 -587,583zm-376 8c0,-338 -213,-576 -574,-576 -167,0 -313,70 -410,182 -93,-112 -236,-182 -411,-182 -353,0 -581,248 -581,576l0 746 331 0 0 -754c0,-145 102,-245 250,-245 218,0 240,172 240,245l0 754 331 0 0 -754c0,-145 105,-245 250,-245 218,0 243,172 243,245l0 754 331 0 0 -746zm3400 -2088l169 0 376 0 954 0 331 0 0 331 0 1044 -331 0 0 -1044 -422 0 -532 0 -338 0 -366 0 -4 -5 -14 -23 -3 -5 -4 -6 -4 -5 -14 -22 -4 -6 -4 -5 -4 -6 -4 -5 -11 -16 0 0 -4 -5 -4 -6 -4 -5 -4 -6 -12 -15 -4 -6 -4 -5 -4 -5 -4 -5 -8 -11 -4 -5 -4 -5 -4 -5 -4 -5 -4 -5 -9 -11 -4 -5 -4 -5 -5 -5 -4 -5 -4 -5 -9 -10 -4 -5 -4 -5 -5 -5 -4 -4 -14 -15 -4 -5 -5 -5 -4 -5 -5 -4 -4 -5 -9 -10 -5 -5 -9 -9 -5 -5c-344,-348 -823,-565 -1352,-565 -529,0 -1008,217 -1352,565l-5 5 -9 9 -5 5 -9 10 -5 5 -4 4 -5 5 -4 5 -5 5 -13 15 -4 4 -5 5 -4 5 -4 5 -9 10 -4 5 -5 5 -4 5 -4 5 -17 21 -4 5 -4 5 -4 5 -12 16 -4 5 -5 5 -4 5 -4 6 -11 15 -4 6 -4 5 -4 6 -4 5 0 0 -12 16 -3 5 -4 6 -4 5 -4 6 -14 22 -4 5 -4 6 -3 5 -15 23 -3 5 -366 0 -282 0 -231 0 -779 0 0 1044 -331 0 0 -1044 0 -331 331 0 1010 0 458 0 31 0c405,-536 1049,-883 1773,-883 724,0 1368,347 1773,883z"/>
 </g>
</svg>
