<?xml version="1.0" encoding="UTF-8"?>
<!DOCTYPE svg PUBLIC "-//W3C//DTD SVG 1.1//EN" "http://www.w3.org/Graphics/SVG/1.1/DTD/svg11.dtd">
<!-- Creator: CorelDRAW X7 -->
<svg xmlns="http://www.w3.org/2000/svg" xml:space="preserve" width="96px" height="96px" version="1.1" style="shape-rendering:geometricPrecision; text-rendering:geometricPrecision; image-rendering:optimizeQuality; fill-rule:evenodd; clip-rule:evenodd"
viewBox="0 0 9600 9600"
 xmlns:xlink="http://www.w3.org/1999/xlink">
 <defs>
  <style type="text/css">
   <![CDATA[
    .fil0 {fill:#FEFEFE}
    .fil1 {fill:#ED3237;fill-rule:nonzero}
   ]]>
  </style>
    <clipPath id="id0">
     <path d="M8 9l9583 0 0 9583 -9583 0 0 -9583z"/>
    </clipPath>
 </defs>
 <g id="Layer_x0020_1">
  <metadata id="CorelCorpID_0Corel-Layer"/>
  <g id="_252736920">
   <g style="clip-path:url(#id0)">
    <image x="8" y="9" width="9583" height="9583" xlink:href="96_Images\96_ImgID1.png"/>
   </g>
  </g>
  <rect class="fil0" x="633" y="633" width="8333" height="8333" rx="1846" ry="1846"/>
  <path class="fil1" d="M1747 5952l0 973 6106 0 0 -973 309 0 0 973 0 309 -309 0 -6106 0 -309 0 0 -309 0 -973 309 0zm5982 -117l0 -300 -178 0c-177,0 -316,-131 -316,-309 0,-180 139,-327 309,-327 171,0 309,152 309,336l0 600 309 0 0 -600c0,-351 -255,-636 -618,-636 -365,0 -620,285 -620,627 0,337 253,609 590,609l215 0zm-1985 0c173,12 312,-21 413,-118 140,-130 157,-331 157,-492 0,-174 33,-219 61,-250 45,-45 109,-61 196,-52l0 -302c-175,-15 -309,26 -411,125 -142,134 -158,319 -158,479 0,178 -31,234 -62,263 -45,45 -116,52 -196,45l0 302zm-357 -1217l-312 0 0 1217 312 0 0 -1217zm-1754 513l0 704 311 0 0 -711c0,-137 100,-232 237,-232 205,0 229,163 229,232l0 61 312 0 0 -54c0,-319 -201,-543 -541,-543 -331,0 -548,233 -548,543zm-352 7c0,-315 -198,-537 -535,-537 -156,0 -292,65 -383,171 -86,-106 -220,-171 -383,-171 -330,0 -542,231 -542,537l0 697 308 0 0 -704c0,-135 96,-229 234,-229 203,0 224,162 224,229l0 704 309 0 0 -704c0,-135 98,-229 233,-229 204,0 227,162 227,229l0 704 308 0 0 -697zm3174 -1948l158 0 350 0 890 0 309 0 0 309 0 974 -309 0 0 -974 -394 0 -496 0 -315 0 -342 0 -3 -5 -13 -21 -4 -5 -3 -5 -4 -5 -13 -21 -4 -5 -3 -5 -4 -5 -3 -5 -11 -15 0 0 -4 -5 -3 -5 -4 -5 -4 -5 -11 -15 -3 -5 -4 -5 -4 -4 -4 -5 -7 -10 -4 -5 -4 -5 -4 -5 -4 -4 -4 -5 -7 -10 -4 -4 -4 -5 -4 -5 -4 -4 -4 -5 -8 -9 -5 -5 -4 -5 -4 -4 -4 -5 -12 -14 -4 -4 -4 -4 -5 -5 -4 -5 -4 -4 -9 -9 -4 -4 -8 -9 -5 -5c-321,-325 -768,-527 -1262,-527 -494,0 -941,202 -1262,527l-5 5 -8 9 -4 4 -9 9 -4 4 -4 5 -5 5 -4 4 -4 4 -12 14 -4 5 -4 4 -4 5 -5 5 -8 9 -4 5 -4 4 -4 5 -4 5 -15 19 -4 4 -4 5 -4 5 -11 15 -4 5 -4 4 -4 5 -3 5 -11 15 -4 5 -4 5 -3 5 -4 5 0 0 -11 15 -3 5 -4 5 -3 5 -4 5 -13 21 -4 5 -3 5 -4 5 -13 21 -3 5 -342 0 -263 0 -215 0 -727 0 0 974 -309 0 0 -974 0 -309 309 0 942 0 427 0 29 0c379,-500 979,-824 1655,-824 676,0 1276,324 1655,824z"/>
 </g>
</svg>
