<?xml version="1.0" encoding="UTF-8"?>
<!DOCTYPE svg PUBLIC "-//W3C//DTD SVG 1.1//EN" "http://www.w3.org/Graphics/SVG/1.1/DTD/svg11.dtd">
<!-- Creator: CorelDRAW X7 -->
<svg xmlns="http://www.w3.org/2000/svg" xml:space="preserve" width="96px" height="69px" version="1.1" style="shape-rendering:geometricPrecision; text-rendering:geometricPrecision; image-rendering:optimizeQuality; fill-rule:evenodd; clip-rule:evenodd"
viewBox="0 0 9600 6900"
 xmlns:xlink="http://www.w3.org/1999/xlink">
 <defs>
  <style type="text/css">
   <![CDATA[
    .fil0 {fill:#ED3237;fill-rule:nonzero}
   ]]>
  </style>
 </defs>
 <g id="Layer_x0020_1">
  <metadata id="CorelCorpID_0Corel-Layer"/>
  <path class="fil0" d="M463 5086l0 1383 8674 0 0 -1383 438 0 0 1383 0 438 -438 0 -8674 0 -438 0 0 -438 0 -1383 438 0zm8497 -166l0 -426 -252 0c-253,0 -449,-186 -449,-439 0,-256 196,-465 439,-465 242,0 439,216 439,479l0 851 438 0 0 -851c0,-499 -362,-905 -877,-905 -519,0 -881,406 -881,891 0,479 359,865 838,865l305 0zm-2819 0c245,17 443,-30 587,-168 198,-184 222,-470 222,-698 0,-248 46,-312 87,-355 64,-64 154,-88 278,-74l0 -430c-248,-20 -439,37 -584,178 -201,191 -224,453 -224,681 0,252 -44,332 -88,373 -63,63 -164,73 -278,63l0 430zm-508 -1728l-443 0 0 1728 443 0 0 -1728zm-2491 728l0 1000 443 0 0 -1010c0,-195 141,-329 335,-329 292,0 326,232 326,329l0 87 443 0 0 -77c0,-453 -285,-772 -769,-772 -469,0 -778,332 -778,772zm-499 11c0,-448 -282,-764 -760,-764 -222,0 -415,93 -544,243 -123,-150 -312,-243 -544,-243 -468,0 -770,329 -770,764l0 989 438 0 0 -999c0,-193 136,-326 332,-326 288,0 318,229 318,326l0 999 438 0 0 -999c0,-193 140,-326 332,-326 289,0 322,229 322,326l0 999 438 0 0 -989zm4507 -2767l225 0 497 0 1265 0 438 0 0 439 0 1383 -438 0 0 -1383 -560 0 -705 0 -448 0 -485 0 -4 -8 -19 -29 -5 -8 -5 -7 -5 -7 -19 -29 -5 -8 -5 -7 -5 -7 -5 -7 -15 -21 -1 -1 -5 -7 -5 -7 -5 -7 -5 -7 -16 -21 -5 -7 -6 -7 -5 -7 -5 -7 -11 -13 -5 -7 -6 -7 -5 -7 -6 -7 -5 -7 -12 -13 -5 -7 -6 -6 -6 -7 -5 -7 -6 -6 -11 -14 -6 -6 -6 -7 -6 -6 -5 -7 -18 -19 -6 -7 -6 -6 -6 -6 -6 -7 -6 -6 -12 -13 -6 -6 -12 -13 -6 -6c-457,-462 -1092,-749 -1793,-749 -701,0 -1336,287 -1793,749l-6 6 -12 13 -6 6 -12 13 -6 6 -6 7 -6 6 -6 6 -6 7 -17 19 -6 7 -6 6 -6 7 -6 6 -11 14 -6 6 -5 7 -6 7 -6 6 -22 27 -6 7 -5 7 -5 7 -17 20 -5 7 -5 7 -6 7 -5 7 -16 21 -5 7 -5 7 -5 7 -5 7 -1 0 -15 22 -5 7 -5 7 -5 7 -5 8 -19 29 -5 7 -5 7 -5 8 -19 29 -4 8 -485 0 -374 0 -306 0 -1033 0 0 1383 -438 0 0 -1383 0 -439 438 0 1339 0 607 0 41 0c537,-711 1390,-1171 2350,-1171 960,0 1813,460 2350,1171z"/>
 </g>
</svg>
